<?xml version="1.0" encoding="UTF-8"?><svg id="Layer_2" xmlns="http://www.w3.org/2000/svg" viewBox="0 0 118.18 118.18"><defs><style>.cls-1{fill:#1d1d1b;stroke-width:0px;}</style></defs><g id="Layer_1-2"><path class="cls-1" d="M59.09,118.18C26.51,118.18,0,91.67,0,59.09S26.51,0,59.09,0s59.09,26.51,59.09,59.09-26.51,59.09-59.09,59.09ZM59.09,8c-28.17,0-51.09,22.92-51.09,51.09s22.92,51.09,51.09,51.09,51.09-22.92,51.09-51.09S87.26,8,59.09,8Z"/><rect class="cls-1" x="38.76" y="44.25" width="8.18" height="25.72"/><rect class="cls-1" x="39.49" y="57.7" width="22.9" height="8.18" transform="translate(-28.77 54.12) rotate(-45)"/><rect class="cls-1" x="30.66" y="50.33" width="8.18" height="22.9" transform="translate(-33.51 42.67) rotate(-45)"/><path class="cls-1" d="M46.89,69.88c0,2.23-1.81,4.04-4.04,4.04s-4.04-1.81-4.04-4.04,1.81-4.04,4.04-4.04,4.04,1.81,4.04,4.04Z"/><rect class="cls-1" x="71.25" y="48.21" width="8.18" height="25.72"/><rect class="cls-1" x="79.34" y="44.94" width="8.18" height="22.9" transform="translate(-15.44 75.51) rotate(-45)"/><rect class="cls-1" x="55.78" y="52.31" width="22.91" height="8.18" transform="translate(-20.18 64.05) rotate(-44.99)"/><circle class="cls-1" cx="75.33" cy="48.3" r="4.04" transform="translate(-9.08 18.6) rotate(-13.28)"/></g></svg>